<svg xmlns="http://www.w3.org/2000/svg" version="1.1" xmlns:xlink="http://www.w3.org/1999/xlink" xmlns:svgjs="http://svgjs.dev/svgjs" width="2000" height="1500" viewBox="0 0 2000 1500"><rect width="2000" height="1500" fill="#dbefed"></rect><g transform="matrix(0.75,0,0,0.75,249.090909090909,282.7536437246963)"><svg viewBox="0 0 396 247" data-background-color="#dbefed" preserveAspectRatio="xMidYMid meet" height="1247" width="2000" xmlns="http://www.w3.org/2000/svg" xmlns:xlink="http://www.w3.org/1999/xlink"><g id="tight-bounds" transform="matrix(1,0,0,1,0.2400000000000091,-0.09999999999999432)"><svg viewBox="0 0 395.52 247.2" height="247.2" width="395.52"><g><svg></svg></g><g><svg viewBox="0 0 395.52 247.2" height="247.2" width="395.52"><g transform="matrix(1,0,0,1,118.77788068006181,47.215199999999996)"><svg viewBox="0 0 157.96423863987636 152.7696" height="152.7696" width="157.96423863987636"><g><svg viewBox="0 0 157.96423863987636 152.7696" height="152.7696" width="157.96423863987636"><g><svg viewBox="0 0 157.96423863987636 152.7696" height="152.7696" width="157.96423863987636"><g><svg viewBox="0 0 157.96423863987636 152.7696" height="152.7696" width="157.96423863987636"><g id="textblocktransform"><svg viewBox="0 0 157.96423863987636 152.7696" height="152.7696" width="157.96423863987636" id="textblock"><g><svg viewBox="0 0 157.96423863987636 152.7696" height="152.7696" width="157.96423863987636"><g transform="matrix(1,0,0,1,0,0)"><svg width="157.96423863987636" viewBox="1.55 -32.35 33.45 32.35" height="152.7696" data-palette-color="#cb1106"><path d="M24.85-32.35L35-32.35 31.75-10.5 30.85 0 20.85 0 22.55-9.5 22.8-12 17.4-12.1 12.65-11.95 12.45-10.5 11.55 0 1.55 0 3.25-9.5 5.55-32.35 15.7-32.35 13.9-20.1 18.95-20 23.6-20.1 24.85-32.35Z" opacity="1" transform="matrix(1,0,0,1,0,0)" fill="#cb1106" class="wordmark-text-0" data-fill-palette-color="primary" id="text-0"></path></svg></g></svg></g></svg></g></svg></g></svg></g></svg></g></svg></g><g><path d="M202.582 0c30.402 0 58.24 10.976 79.768 29.183l-11.147 0c-19.26-14.022-42.974-22.294-68.621-22.295-25.647 0-49.361 8.272-68.621 22.295l-11.147 0c21.528-18.206 49.366-29.183 79.768-29.183zM326.182 123.6c0 17.003-3.433 33.204-9.644 47.948v-22.62c1.804-8.155 2.756-16.63 2.756-25.328 0-8.698-0.951-17.173-2.756-25.328l0-22.62c6.211 14.744 9.644 30.945 9.644 47.948zM202.582 247.2c-30.402 0-58.24-10.976-79.768-29.183l11.147 0c19.26 14.022 42.974 22.294 68.621 22.295 25.647 0 49.361-8.272 68.621-22.295h11.147c-21.528 18.206-49.366 29.183-79.768 29.183z" fill="#cb1106" stroke="transparent" data-fill-palette-color="tertiary"></path></g></svg></g><defs></defs></svg><rect width="395.52" height="247.2" fill="none" stroke="none" visibility="hidden"></rect></g></svg></g></svg>