<svg xmlns="http://www.w3.org/2000/svg" version="1.1" xmlns:xlink="http://www.w3.org/1999/xlink" xmlns:svgjs="http://svgjs.dev/svgjs" width="2000" height="1500" viewBox="0 0 2000 1500"><rect width="2000" height="1500" fill="#ffffff"></rect><g transform="matrix(0.75,0,0,0.75,249.090909090909,411.0717646275896)"><svg viewBox="0 0 396 179" data-background-color="#ffffff" preserveAspectRatio="xMidYMid meet" height="904" width="2000" xmlns="http://www.w3.org/2000/svg" xmlns:xlink="http://www.w3.org/1999/xlink"><g id="tight-bounds" transform="matrix(1,0,0,1,0.2400000000000091,-0.018946708463928985)"><svg viewBox="0 0 395.52 179.03789341692786" height="179.03789341692786" width="395.52"><g><svg viewBox="0 0 395.52 179.03789341692786" height="179.03789341692786" width="395.52"><g><svg viewBox="0 0 395.52 179.03789341692786" height="179.03789341692786" width="395.52"><g id="textblocktransform"><svg viewBox="0 0 395.52 179.03789341692786" height="179.03789341692786" width="395.52" id="textblock"><g><svg viewBox="0 0 395.52 179.03789341692786" height="179.03789341692786" width="395.52"><g transform="matrix(1,0,0,1,0,0)"><svg width="395.52" viewBox="2.2 -35.5 79.75 36.1" height="179.03789341692786" data-palette-color="#30017e"><path d="M25 0.6Q23.05 0.6 21.8-0.68 20.55-1.95 20.55-4.13 20.55-6.3 22.75-16.45L22.75-16.45Q21.45-16.75 18.55-16.75 15.65-16.75 13-16.25L13-16.25Q10.45-4.75 10.3-0.85L10.3-0.85Q8.5 0.15 2.7 0.15L2.7 0.15 2.2 0.15Q2.35-2.05 4.88-13 7.4-23.95 8-29.45L8-29.45Q8-30.25 7.5-31.38 7-32.5 6.5-33.2L6.5-33.2 5.95-33.9 6.1-34.65Q9.05-35.5 15.45-35.5L15.45-35.5Q16.05-34.5 16.05-32.25 16.05-30 13.8-19.85L13.8-19.85 23.45-19.85Q25.2-28.75 25.25-32.55L25.25-32.55Q25.25-33.4 25.15-33.95L25.15-33.95Q29.15-35.5 33.2-35.5L33.2-35.5Q33.35-35.2 33.35-34L33.35-34Q33.35-31.25 30.93-19.85 28.5-8.45 28.5-5.35L28.5-5.35Q28.5-4 28.95-4 29.4-4 32-5.3L32-5.3 32.9-3.45Q28.45 0.6 25 0.6L25 0.6ZM73.57 0.6Q71.7 0.6 70.55-0.73 69.4-2.05 69.4-4.33 69.4-6.6 71.47-15.65 73.55-24.7 73.55-27.2 73.55-29.7 71.6-29.7L71.6-29.7Q68.9-29.7 65.65-27.3L65.65-27.3Q65.3-24.6 63.6-17.88 61.9-11.15 61.32-7.93 60.75-4.7 60.75-2.95 60.75-1.2 60.8-0.8L60.8-0.8Q58.85 0.2 53.85 0.2L53.85 0.2 52.9 0.2Q52.9-4 55.25-14.1L55.25-14.1Q57.65-24.4 57.65-27.05 57.65-29.7 55.8-29.7L55.8-29.7Q53.1-29.7 49.5-27.1L49.5-27.1Q48.95-24.35 47.45-18.15L47.45-18.15Q44.1-3.95 44.1-0.8L44.1-0.8Q42.15 0.2 37.2 0.2L37.2 0.2 36.25 0.2Q36.45-2.05 38.9-13.03 41.35-24 41.95-29.45L41.95-29.45Q41.95-30.25 41.42-31.38 40.9-32.5 40.35-33.2L40.35-33.2 39.85-33.9 40-34.65Q42.8-35.5 49.65-35.5L49.65-35.5Q50.3-34.3 50.3-32.45L50.3-32.45Q50.3-32.05 50.1-30.35L50.1-30.35Q55.85-35.5 60.4-35.5L60.4-35.5Q62.45-35.5 63.85-34.1 65.25-32.7 65.65-30.45L65.65-30.45Q71.6-35.5 75.75-35.5L75.75-35.5Q78.35-35.5 79.95-33.8 81.55-32.1 81.55-29.05 81.55-26 79.42-17.43 77.3-8.85 77.3-5.45L77.3-5.45Q77.3-4 77.8-4L77.8-4Q78.25-4 80.25-5L80.25-5 80.95-5.3 81.95-3.45Q79.8-1.6 77.62-0.5 75.45 0.6 73.57 0.6ZM45.4-19.25L45.45-19.5Q45.4-19.4 45.4-19.25L45.4-19.25Z" opacity="1" transform="matrix(1,0,0,1,0,0)" fill="#30017e" class="wordmark-text-0" data-fill-palette-color="primary" id="text-0"></path></svg></g></svg></g></svg></g></svg></g></svg></g><defs></defs></svg><rect width="395.52" height="179.03789341692786" fill="none" stroke="none" visibility="hidden"></rect></g></svg></g></svg>